<svg width="16" height="16" viewBox="0 0 16 16" fill="none" xmlns="http://www.w3.org/2000/svg">
<g clip-path="url(#clip0_4_759)">
<path d="M15.3334 14.4762H14.8473V5.10293H15.3334V4.24579H12.0497V5.95044H13.4109V6.80758H12.0497V7.66483H13.4109V8.52196H12.0497V9.3791H13.4109V10.2362H12.0497V11.0935H13.4109V11.9506H12.0497V14.4763H11.2189V2.62775L8.00008 0.666626L4.78123 2.62775V14.4762H3.9505V11.9505H2.59878V11.0935H3.9505V10.2362H2.59878V9.3791H3.9505V8.52185H2.59878V7.66483H3.9505V6.80758H2.59878V5.95044H3.9505V4.24579H0.666748V5.10293H1.16234V14.4762H0.666748V15.3333H15.3334V14.4762ZM9.20019 4.12203H10.0573V4.97917H9.20019V4.12203ZM9.20019 5.92191H10.0573V6.77904H9.20019V5.92191ZM9.20019 7.72189H10.0573V8.57903H9.20019V7.72189ZM9.20019 9.52177H10.0573V10.3789H9.20019V9.52177ZM9.20019 11.3216H10.0573V12.1788H9.20019V11.3216ZM7.57151 4.12203H8.42865V4.97917H7.57151V4.12203ZM7.57151 5.92191H8.42865V6.77904H7.57151V5.92191ZM7.57151 7.72189H8.42865V8.57903H7.57151V7.72189ZM7.57151 9.52177H8.42865V10.3789H7.57151V9.52177ZM7.57151 11.3216H8.42865V12.1788H7.57151V11.3216ZM5.91442 4.12203H6.77167V4.97917H5.91442V4.12203ZM5.91442 5.92191H6.77167V6.77904H5.91442V5.92191ZM5.91442 7.72189H6.77167V8.57903H5.91442V7.72189ZM5.91442 9.52177H6.77167V10.3789H5.91442V9.52177ZM5.91442 11.3216H6.77167V12.1788H5.91442V11.3216ZM7.57151 12.9502H8.42865V14.4762H7.57151V12.9502Z" fill="#0B3662"/>
</g>
<defs>
<clipPath id="clip0_4_759">
<rect width="16" height="16" fill="white"/>
</clipPath>
</defs>
</svg>
