<svg width="16" height="16" viewBox="0 0 16 16" fill="none" xmlns="http://www.w3.org/2000/svg">
<g clip-path="url(#clip0_4_406)">
<mask id="mask0_4_406" style="mask-type:luminance" maskUnits="userSpaceOnUse" x="0" y="0" width="16" height="16">
<path d="M0.666748 0.666748H15.3334V15.3334H0.666748V0.666748Z" fill="white"/>
</mask>
<g mask="url(#mask0_4_406)">
<path fill-rule="evenodd" clip-rule="evenodd" d="M10.8623 6.53342C10.9063 6.99468 10.9334 7.48088 10.9334 8.00008C10.9334 8.19456 10.8561 8.38112 10.7186 8.51862C10.5811 8.65612 10.3946 8.73342 10.2001 8.73342C10.0056 8.73342 9.81904 8.65612 9.68154 8.51862C9.54404 8.38112 9.46675 8.19456 9.46675 8.00008C9.46675 7.47722 9.43815 6.98955 9.38975 6.53342H6.60088C6.49896 7.50848 6.49798 8.49149 6.59795 9.46675H8.00008C8.19456 9.46675 8.38112 9.54404 8.51862 9.68154C8.65612 9.81904 8.73341 10.0056 8.73341 10.2001C8.73341 10.3946 8.65612 10.5811 8.51862 10.7186C8.38112 10.8561 8.19456 10.9334 8.00008 10.9334H6.83848C7.18242 12.4587 7.71995 13.4341 8.00082 13.8667C8.00082 13.8667 8.57941 13.8763 8.67988 13.8682C8.87356 13.8557 9.06437 13.9198 9.21118 14.0466C9.358 14.1736 9.449 14.3531 9.46455 14.5465C9.4787 14.7404 9.41527 14.932 9.28818 15.0792C9.16109 15.2263 8.98084 15.317 8.78695 15.3312C8.71801 15.3363 8.00008 15.3334 8.00008 15.3334C3.95648 15.3334 0.666748 12.0437 0.666748 8.00008C0.666748 3.95575 3.95648 0.666748 8.00008 0.666748C12.0437 0.666748 15.3334 3.95575 15.3334 8.00008C15.3334 8.27802 15.307 8.54935 15.2755 8.81848C15.2464 9.00622 15.1456 9.17532 14.9944 9.29031C14.8432 9.40522 14.6532 9.45714 14.4646 9.435C14.2759 9.41285 14.1032 9.31847 13.9827 9.17166C13.8621 9.02484 13.8032 8.83696 13.8183 8.64762C13.844 8.43422 13.8667 8.22008 13.8667 8.00008C13.8667 7.49262 13.7949 7.00275 13.6739 6.53342H10.8623ZM7.99128 2.15981C7.70821 2.60421 7.18461 3.57588 6.84435 5.06675H9.14481C8.80308 3.57588 8.27582 2.60421 7.99128 2.15981ZM2.32628 9.46675H5.12688C5.08435 9.00548 5.05721 8.52075 5.05721 8.00302C5.05768 7.51232 5.08117 7.02191 5.12761 6.53342H2.32628C2.20455 7.00275 2.13341 7.49262 2.13341 8.00008C2.13524 8.49516 2.20005 8.98803 2.32628 9.46675ZM2.92688 10.9334C3.65105 12.1828 4.809 13.1226 6.18068 13.5741C5.79857 12.7296 5.51605 11.8433 5.33881 10.9334H2.92688ZM5.34028 5.06675C5.56102 3.96602 5.87928 3.08455 6.18361 2.42455C4.81058 2.87578 3.65143 3.8162 2.92688 5.06675H5.34028ZM10.6489 5.06675H13.0725C12.345 3.81031 11.1789 2.86698 9.79821 2.41795C10.185 3.26434 10.4705 4.15343 10.6489 5.06675Z" fill="#0B3662"/>
<path d="M12.1527 15.1015L10.1325 10.657C9.98099 10.3238 10.3238 9.98104 10.657 10.1324L15.1015 12.1527C15.4048 12.2906 15.4127 12.7186 15.1147 12.8676L13.7347 13.5575C13.6581 13.5959 13.596 13.6581 13.5576 13.7347L12.8676 15.1147C12.7186 15.4127 12.2906 15.4048 12.1527 15.1015Z" fill="#0B3662"/>
</g>
</g>
<defs>
<clipPath id="clip0_4_406">
<rect width="14.6667" height="14.6667" fill="white" transform="translate(0.666748 0.666748)"/>
</clipPath>
</defs>
</svg>
