<svg width="16" height="16" viewBox="0 0 16 16" fill="none" xmlns="http://www.w3.org/2000/svg">
<path d="M7.99995 0.666626C6.57387 0.666626 5.2062 1.23313 4.19782 2.24152C3.18943 3.24991 2.62292 4.61757 2.62292 6.04365C2.62292 8.88369 7.41336 14.8913 7.61867 15.1504C7.66447 15.2075 7.72251 15.2535 7.7885 15.2852C7.85449 15.3169 7.92675 15.3333 7.99995 15.3333C8.07314 15.3333 8.1454 15.3169 8.21139 15.2852C8.27738 15.2535 8.33542 15.2075 8.38123 15.1504C8.58653 14.8913 13.377 8.88369 13.377 6.04365C13.377 4.61757 12.8105 3.24991 11.8021 2.24152C10.7937 1.23313 9.42602 0.666626 7.99995 0.666626ZM7.99995 7.51011C7.61323 7.51011 7.23519 7.39543 6.91365 7.18058C6.59211 6.96573 6.34149 6.66036 6.1935 6.30308C6.04551 5.9458 6.00679 5.55266 6.08224 5.17337C6.15768 4.79408 6.3439 4.44569 6.61735 4.17224C6.8908 3.89878 7.2392 3.71256 7.61849 3.63712C7.99778 3.56167 8.39092 3.60039 8.7482 3.74838C9.10548 3.89637 9.41085 4.14699 9.6257 4.46853C9.84055 4.79008 9.95523 5.16811 9.95523 5.55483C9.95523 6.0734 9.74922 6.57073 9.38254 6.93742C9.01585 7.30411 8.51852 7.51011 7.99995 7.51011Z" fill="#0B3662"/>
</svg>
