<svg width="16" height="16" viewBox="0 0 16 16" fill="none" xmlns="http://www.w3.org/2000/svg">
<path d="M15.2041 3.58038L10.7559 7.99999L15.2041 12.4196C15.2845 12.2515 15.3333 12.0657 15.3333 11.8673V4.13267C15.3333 3.93423 15.2845 3.74845 15.2041 3.58038Z" fill="#0B3662"/>
<path d="M14.045 2.84326H1.95597C1.75753 2.84326 1.57176 2.89205 1.40369 2.97246L7.08903 8.62916C7.59173 9.13185 8.40919 9.13185 8.91189 8.62916L14.5972 2.97246C14.4292 2.89205 14.2434 2.84326 14.045 2.84326Z" fill="#0B3662"/>
<path d="M0.795823 3.58038C0.715412 3.74845 0.666626 3.93423 0.666626 4.13267V11.8673C0.666626 12.0658 0.715412 12.2516 0.795823 12.4196L5.24408 7.99999L0.795823 3.58038Z" fill="#0B3662"/>
<path d="M10.149 8.60791L9.51952 9.23737C8.68191 10.075 7.31898 10.075 6.48137 9.23737L5.85194 8.60791L1.40369 13.0275C1.57176 13.1079 1.75753 13.1567 1.95597 13.1567H14.045C14.2434 13.1567 14.4292 13.1079 14.5972 13.0275L10.149 8.60791Z" fill="#0B3662"/>
</svg>
