<svg width="16" height="16" viewBox="0 0 16 16" fill="none" xmlns="http://www.w3.org/2000/svg">
<g clip-path="url(#clip0_4_427)">
<path d="M15.3017 12.0306C15.2602 11.9056 14.9963 11.7215 14.5101 11.4786C14.3784 11.4021 14.1907 11.2981 13.9478 11.1661C13.7048 11.0341 13.4842 10.9125 13.2864 10.8014C13.0882 10.6903 12.9025 10.5827 12.7291 10.4787C12.7013 10.4578 12.6145 10.3971 12.4687 10.2962C12.3227 10.1956 12.1996 10.1209 12.0988 10.0722C11.9981 10.0238 11.8991 9.99943 11.8018 9.99943C11.663 9.99943 11.4895 10.0984 11.2813 10.2962C11.073 10.4943 10.882 10.7094 10.7085 10.9422C10.5349 11.175 10.3509 11.3901 10.1566 11.588C9.96208 11.786 9.80225 11.8849 9.6774 11.8849C9.61472 11.8849 9.53657 11.8674 9.44291 11.8329C9.34929 11.7983 9.27807 11.7685 9.22919 11.7445C9.18073 11.7201 9.09759 11.6716 8.97945 11.5985C8.86109 11.5255 8.79528 11.4856 8.78141 11.4786C7.83008 10.9507 7.01418 10.3465 6.33357 9.66622C5.65317 8.98549 5.04892 8.16967 4.52117 7.21823C4.51424 7.20433 4.47422 7.13833 4.40136 7.02034C4.32839 6.90224 4.27976 6.81902 4.25546 6.77027C4.23116 6.72171 4.20164 6.6505 4.16698 6.55677C4.13232 6.46304 4.11492 6.38496 4.11492 6.32239C4.11492 6.19747 4.2139 6.03767 4.41183 5.84321C4.60972 5.64885 4.82505 5.46475 5.0576 5.29127C5.29034 5.11779 5.50545 4.92676 5.70341 4.7185C5.9013 4.51014 6.00025 4.33662 6.00025 4.19776C6.00025 4.10061 5.97595 4.00155 5.92739 3.90089C5.87879 3.80001 5.80415 3.67691 5.70341 3.53101C5.60264 3.38518 5.5419 3.29846 5.52103 3.27055C5.41697 3.09707 5.30945 2.91132 5.19821 2.7134C5.08697 2.51551 4.96555 2.29492 4.83355 2.0519C4.70166 1.80899 4.59757 1.62142 4.5211 1.48949C4.27819 1.00349 4.0942 0.739485 3.96917 0.697966C3.92053 0.677133 3.84756 0.666626 3.75044 0.666626C3.56284 0.666626 3.3181 0.701286 3.01605 0.770825C2.71389 0.840255 2.47612 0.913078 2.30249 0.989585C1.95527 1.13534 1.58725 1.55892 1.19833 2.26019C0.844173 2.91282 0.667114 3.55878 0.667114 4.19758C0.667114 4.38493 0.679264 4.5672 0.703562 4.74444C0.727861 4.9215 0.771277 5.12118 0.833848 5.34344C0.896309 5.56563 0.946694 5.73069 0.984783 5.83817C1.02291 5.94573 1.09409 6.1384 1.19829 6.41627C1.30234 6.69406 1.36491 6.86411 1.38575 6.92661C1.62877 7.60719 1.91696 8.21476 2.25024 8.74951C2.7986 9.63834 3.54693 10.5569 4.4948 11.5048C5.44269 12.4527 6.36108 13.201 7.24998 13.7496C7.78466 14.0828 8.39245 14.371 9.07292 14.6142C9.13546 14.6349 9.30551 14.6973 9.58319 14.8018C9.86098 14.9059 10.0537 14.9771 10.1613 15.0153C10.2689 15.0535 10.434 15.1039 10.656 15.1665C10.8785 15.2291 11.078 15.2725 11.255 15.297C11.4322 15.3209 11.6145 15.3333 11.8019 15.3333C12.4406 15.3333 13.0866 15.1561 13.7394 14.802C14.4406 14.4132 14.864 14.0451 15.0099 13.6977C15.0866 13.5242 15.1592 13.2864 15.2286 12.9842C15.2983 12.6822 15.3329 12.4375 15.3329 12.2499C15.3331 12.1524 15.3226 12.0796 15.3017 12.0306Z" fill="#0B3662"/>
</g>
<defs>
<clipPath id="clip0_4_427">
<rect width="16" height="16" fill="white"/>
</clipPath>
</defs>
</svg>
