<svg width="16" height="16" viewBox="0 0 16 16" fill="none" xmlns="http://www.w3.org/2000/svg">
<g clip-path="url(#clip0_4_444)">
<path d="M7.65907 8.17034C9.73115 8.17034 11.4109 6.49058 11.4109 4.41848C11.4109 2.34639 9.73115 0.666626 7.65907 0.666626C5.58698 0.666626 3.90723 2.34639 3.90723 4.41848C3.90723 6.49058 5.58698 8.17034 7.65907 8.17034Z" fill="white"/>
<path fill-rule="evenodd" clip-rule="evenodd" d="M8.63546 14.6589C7.92398 13.8977 7.48876 12.8751 7.48876 11.7516C7.48876 10.6049 7.9424 9.56393 8.67912 8.79718C8.34691 8.77194 8.00584 8.7583 7.6593 8.7583C5.39319 8.7583 3.38698 9.32517 2.14137 10.1745C1.19113 10.8225 0.667236 11.6459 0.667236 12.5102V13.5C0.667236 13.8069 0.789342 14.1023 1.00695 14.3199C1.22456 14.5368 1.51925 14.6596 1.8269 14.6596L8.63546 14.6589Z" fill="white"/>
<path fill-rule="evenodd" clip-rule="evenodd" d="M11.7527 8.17029C9.77581 8.17029 8.17139 9.77472 8.17139 11.7516C8.17139 13.7285 9.77581 15.3329 11.7527 15.3329C13.7296 15.3329 15.334 13.7285 15.334 11.7516C15.334 9.77472 13.7296 8.17029 11.7527 8.17029ZM12.2643 11.24V10.5578C12.2643 10.2754 12.0351 10.0462 11.7527 10.0462C11.4703 10.0462 11.2411 10.2754 11.2411 10.5578V11.24H10.5589C10.2765 11.24 10.0473 11.4692 10.0473 11.7516C10.0473 12.034 10.2765 12.2632 10.5589 12.2632H11.2411V12.9454C11.2411 13.2278 11.4703 13.457 11.7527 13.457C12.0351 13.457 12.2643 13.2278 12.2643 12.9454V12.2632H12.9465C13.2289 12.2632 13.4581 12.034 13.4581 11.7516C13.4581 11.4692 13.2289 11.24 12.9465 11.24H12.2643Z" fill="white"/>
</g>
<defs>
<clipPath id="clip0_4_444">
<rect width="16" height="16" fill="white"/>
</clipPath>
</defs>
</svg>
